<svg width="32" height="20" viewBox="0 0 32 20" fill="none" xmlns="http://www.w3.org/2000/svg">
<rect x="0.25" y="0.25" width="31.5" height="19.5" rx="1.75" fill="white"/>
<rect x="0.25" y="0.25" width="31.5" height="19.5" rx="1.75" stroke="black" stroke-width="0.5"/>
<path fill-rule="evenodd" clip-rule="evenodd" d="M8.93395 6.4239C9.20144 6.08933 9.38296 5.64009 9.33508 5.18103C8.94351 5.2005 8.46568 5.43936 8.18903 5.7742C7.94064 6.06093 7.72079 6.52898 7.7781 6.9688C8.21766 7.00693 8.65681 6.74909 8.93395 6.4239ZM9.33005 7.05467C8.94178 7.03155 8.58888 7.17058 8.30337 7.28307C8.11948 7.35552 7.96354 7.41696 7.84412 7.41696C7.71243 7.41696 7.55057 7.35299 7.36851 7.28104C7.1289 7.18635 6.8543 7.07782 6.5674 7.08308C5.91025 7.09273 5.30048 7.46429 4.967 8.05524C4.2811 9.23745 4.78599 10.9911 5.453 11.9539C5.77692 12.4303 6.16729 12.9548 6.68166 12.9359C6.90692 12.927 7.0687 12.8588 7.23627 12.7881C7.43024 12.7063 7.63196 12.6213 7.9489 12.6213C8.25109 12.6213 8.44355 12.7037 8.62845 12.7829C8.80475 12.8584 8.97417 12.931 9.22527 12.9264C9.75878 12.9169 10.0923 12.4498 10.4162 11.973C10.7682 11.4586 10.9233 10.961 10.9468 10.8855L10.9495 10.8769C10.9489 10.8763 10.9444 10.8742 10.9366 10.8706C10.8175 10.8159 9.92016 10.4037 9.9113 9.30397C9.90224 8.38117 10.6173 7.91323 10.7348 7.83639L10.7348 7.83638C10.7423 7.83148 10.7473 7.82818 10.7496 7.82644C10.2923 7.15009 9.57776 7.07383 9.33005 7.05467ZM17.2418 8.07497C17.2418 6.68257 16.2756 5.72621 14.8882 5.72621L12.2074 5.7262V12.8766H13.3173V10.4337H14.8534C16.2558 10.4337 17.2418 9.47234 17.2418 8.07497ZM14.5908 9.50207H13.3173V6.66279H14.5957C15.5571 6.66279 16.107 7.17815 16.107 8.07994C16.107 8.98183 15.5571 9.50207 14.5908 9.50207ZM17.5317 11.3951C17.5317 10.4833 18.2304 9.92343 19.4693 9.85403L20.8963 9.76983V9.3685C20.8963 8.78872 20.5048 8.44186 19.8509 8.44186C19.2313 8.44186 18.8448 8.73911 18.7508 9.20497H17.7399C17.7994 8.26341 18.602 7.5697 19.8905 7.5697C21.154 7.5697 21.9617 8.23866 21.9617 9.2842V12.8767H20.9359V12.0195H20.9112C20.609 12.5992 19.9499 12.9659 19.2661 12.9659C18.2453 12.9659 17.5317 12.3316 17.5317 11.3951ZM20.8963 10.9244V10.5131L19.6129 10.5924C18.9737 10.637 18.612 10.9194 18.612 11.3654C18.612 11.8212 18.9886 12.1186 19.5634 12.1186C20.3116 12.1186 20.8963 11.6032 20.8963 10.9244ZM22.93 13.9271V14.7943C23.0092 14.8091 23.2768 14.8191 23.3661 14.8191C24.4463 14.8191 24.9617 14.4128 25.4075 13.1491L27.36 7.6637H26.2302L24.912 11.9054H24.8923L23.5741 7.6637H22.4147L24.2976 12.8816C24.2976 12.8837 24.2814 12.9376 24.2625 13.0007C24.2357 13.09 24.2034 13.1978 24.2034 13.2037C24.0399 13.7388 23.7723 13.9469 23.2768 13.9469C23.1875 13.9469 23.0092 13.9469 22.93 13.9271Z" fill="black"/>
</svg>
