<svg width="32" height="20" viewBox="0 0 32 20" fill="none" xmlns="http://www.w3.org/2000/svg">
<rect x="0.25" y="0.25" width="31.5" height="19.5" rx="1.75" fill="white"/>
<rect x="0.25" y="0.25" width="31.5" height="19.5" rx="1.75" stroke="black" stroke-width="0.5"/>
<path fill-rule="evenodd" clip-rule="evenodd" d="M15.9999 14.2497C15.0132 15.0813 13.7334 15.5833 12.3349 15.5833C9.21418 15.5833 6.68433 13.0835 6.68433 9.99999C6.68433 6.9164 9.21418 4.41666 12.3349 4.41666C13.7334 4.41666 15.0132 4.91867 15.9999 5.75027C16.9866 4.91867 18.2664 4.41666 19.665 4.41666C22.7857 4.41666 25.3155 6.9164 25.3155 9.99999C25.3155 13.0835 22.7857 15.5833 19.665 15.5833C18.2664 15.5833 16.9866 15.0813 15.9999 14.2497Z" fill="#ED0006"/>
<path fill-rule="evenodd" clip-rule="evenodd" d="M16 14.2497C17.215 13.2256 17.9855 11.7017 17.9855 9.99999C17.9855 8.29827 17.215 6.77436 16 5.75027C16.9867 4.91867 18.2665 4.41666 19.665 4.41666C22.7857 4.41666 25.3156 6.9164 25.3156 9.99999C25.3156 13.0835 22.7857 15.5833 19.665 15.5833C18.2665 15.5833 16.9867 15.0813 16 14.2497Z" fill="#F9A000"/>
<path fill-rule="evenodd" clip-rule="evenodd" d="M15.9999 14.2496C17.215 13.2255 17.9855 11.7016 17.9855 9.99987C17.9855 8.29815 17.215 6.77424 15.9999 5.75015C14.7849 6.77424 14.0144 8.29815 14.0144 9.99987C14.0144 11.7016 14.7849 13.2255 15.9999 14.2496Z" fill="#FF5E00"/>
</svg>
