<svg width="32" height="20" viewBox="0 0 32 20" fill="none" xmlns="http://www.w3.org/2000/svg">
<rect x="0.25" y="0.25" width="31.5" height="19.5" rx="1.75" fill="white"/>
<rect x="0.25" y="0.25" width="31.5" height="19.5" rx="1.75" stroke="black" stroke-width="0.5"/>
<path fill-rule="evenodd" clip-rule="evenodd" d="M14.0126 15.1143L14.2009 13.9067L13.7815 13.8968H11.7788L13.1706 4.98551C13.1749 4.95853 13.1889 4.93348 13.2094 4.91566C13.23 4.89784 13.2562 4.88806 13.2836 4.88806H16.6604C17.7815 4.88806 18.5552 5.12359 18.959 5.58854C19.1484 5.80666 19.269 6.03466 19.3274 6.28546C19.3886 6.54869 19.3896 6.86314 19.3299 7.24673L19.3256 7.27463V7.52044L19.5149 7.62879C19.6744 7.71422 19.8011 7.81198 19.8983 7.92389C20.0603 8.11044 20.165 8.3475 20.2093 8.62844C20.2551 8.91743 20.24 9.26141 20.165 9.6508C20.0786 10.0986 19.939 10.4887 19.7503 10.8079C19.5769 11.1019 19.3558 11.3459 19.0933 11.5349C18.8427 11.7145 18.5451 11.8509 18.2085 11.9382C17.8823 12.0239 17.5104 12.0672 17.1025 12.0672H16.8397C16.6518 12.0672 16.4693 12.1355 16.326 12.258C16.1823 12.383 16.0873 12.5539 16.0582 12.7408L16.0383 12.8495L15.7057 14.9781L15.6906 15.0562C15.6866 15.0809 15.6797 15.0932 15.6697 15.1016C15.6607 15.1092 15.6478 15.1143 15.6352 15.1143H14.0126Z" fill="#28356A"/>
<path fill-rule="evenodd" clip-rule="evenodd" d="M19.6939 7.30164C19.6839 7.36671 19.6723 7.4332 19.6594 7.50153C19.2141 9.81041 17.6905 10.608 15.7448 10.608H14.754C14.516 10.608 14.3155 10.7824 14.2785 11.0195L13.6276 15.1889C13.6035 15.3446 13.7222 15.4848 13.8777 15.4848H15.6349C15.843 15.4848 16.0197 15.3322 16.0525 15.1249L16.0698 15.0348L16.4006 12.9146L16.4219 12.7984C16.4543 12.5904 16.6314 12.4377 16.8395 12.4377H17.1022C18.8047 12.4377 20.1375 11.7397 20.527 9.71987C20.6897 8.87612 20.6055 8.17156 20.1749 7.67606C20.0446 7.52668 19.883 7.40265 19.6939 7.30164Z" fill="#298FC2"/>
<path fill-rule="evenodd" clip-rule="evenodd" d="M19.2272 7.11489C19.1592 7.09483 19.089 7.0767 19.017 7.06031C18.9446 7.04432 18.8705 7.03017 18.7941 7.01775C18.527 6.97416 18.2343 6.95349 17.9208 6.95349H15.2741C15.2088 6.95349 15.1469 6.96836 15.0916 6.99524C14.9694 7.05451 14.8788 7.1712 14.8568 7.31407L14.2937 10.9153L14.2776 11.0203C14.3146 10.7832 14.5152 10.6088 14.7531 10.6088H15.7439C17.6897 10.6088 19.2132 9.81083 19.6585 7.50235C19.6718 7.43402 19.683 7.36753 19.693 7.30246C19.5804 7.24207 19.4584 7.19045 19.327 7.14646C19.2945 7.13556 19.261 7.12507 19.2272 7.11489Z" fill="#22284F"/>
<path fill-rule="evenodd" clip-rule="evenodd" d="M14.8566 7.31413C14.8786 7.17126 14.9692 7.05457 15.0913 6.99571C15.1471 6.96873 15.2086 6.95386 15.2739 6.95386H17.9206C18.2341 6.95386 18.5268 6.97463 18.7939 7.01821C18.8703 7.03054 18.9444 7.04479 19.0168 7.06078C19.0888 7.07707 19.159 7.0953 19.227 7.11526C19.2608 7.12544 19.2943 7.13603 19.3271 7.14652C19.4584 7.19051 19.5806 7.24254 19.6932 7.30252C19.8257 6.4493 19.6921 5.86836 19.2353 5.34231C18.7316 4.76311 17.8226 4.51526 16.6595 4.51526H13.2826C13.045 4.51526 12.8423 4.68969 12.8056 4.92716L11.3991 13.9302C11.3714 14.1083 11.5074 14.269 11.6853 14.269H13.77L14.8566 7.31413Z" fill="#28356A"/>
</svg>
