<svg width="32" height="20" viewBox="0 0 32 20" fill="none" xmlns="http://www.w3.org/2000/svg">
<rect x="0.25" y="0.25" width="31.5" height="19.5" rx="1.75" fill="white"/>
<rect x="0.25" y="0.25" width="31.5" height="19.5" rx="1.75" stroke="black" stroke-width="0.5"/>
<path d="M17.9411 10C17.9411 13.0862 15.4679 15.5881 12.4171 15.5881C9.36625 15.5881 6.89307 13.0862 6.89307 10C6.89307 6.91376 9.36625 4.41187 12.4171 4.41187C15.4679 4.41187 17.9411 6.91376 17.9411 10Z" fill="#ED0006"/>
<path d="M25.1071 10C25.1071 13.0862 22.6339 15.5881 19.5831 15.5881C16.5323 15.5881 14.0591 13.0862 14.0591 10C14.0591 6.91376 16.5323 4.41187 19.5831 4.41187C22.6339 4.41187 25.1071 6.91376 25.1071 10Z" fill="#0099DF"/>
<path fill-rule="evenodd" clip-rule="evenodd" d="M16.0001 14.2554C17.1879 13.2305 17.9411 11.7053 17.9411 10.0021C17.9411 8.29894 17.1879 6.77374 16.0001 5.74878C14.8123 6.77374 14.0591 8.29894 14.0591 10.0021C14.0591 11.7053 14.8123 13.2305 16.0001 14.2554Z" fill="#6C6BBD"/>
</svg>
